<svg viewBox="0 0 931 201" fill="currentColor" xmlns="http://www.w3.org/2000/svg">
   <path d="M402.4 70H419.2V170H402.4L401.7 153.1C398.567 158.9 394.233 163.6 388.7 167.2C383.233 170.8 376.7 172.6 369.1 172.6C361.767 172.6 354.9 171.233 348.5 168.5C342.1 165.7 336.433 161.867 331.5 157C326.633 152.067 322.833 146.4 320.1 140C317.367 133.6 316 126.7 316 119.3C316 112.167 317.333 105.433 320 99.1C322.667 92.7667 326.367 87.2333 331.1 82.5C335.9 77.7 341.433 73.9667 347.7 71.3C353.967 68.5667 360.7 67.2 367.9 67.2C375.767 67.2 382.667 69.0667 388.6 72.8C394.533 76.4667 399.333 81.2333 403 87.1L402.4 70ZM368.8 156.3C375.4 156.3 381.1 154.7 385.9 151.5C390.767 148.233 394.5 143.833 397.1 138.3C399.767 132.767 401.1 126.667 401.1 120C401.1 113.2 399.767 107.067 397.1 101.6C394.433 96.0667 390.667 91.7 385.8 88.5C381 85.2333 375.333 83.6 368.8 83.6C362.2 83.6 356.2 85.2333 350.8 88.5C345.4 91.7667 341.1 96.1667 337.9 101.7C334.767 107.167 333.2 113.267 333.2 120C333.2 126.733 334.833 132.867 338.1 138.4C341.367 143.867 345.7 148.233 351.1 151.5C356.5 154.7 362.4 156.3 368.8 156.3ZM439.188 170V70H455.988V82.5C459.521 77.8333 463.954 74.1333 469.288 71.4C474.688 68.6 480.554 67.2 486.888 67.2C494.288 67.2 501.054 69 507.188 72.6C513.321 76.2 518.154 80.9667 521.688 86.9C525.221 80.9667 530.021 76.2 536.088 72.6C542.221 69 548.954 67.2 556.288 67.2C563.821 67.2 570.654 69.0333 576.788 72.7C582.921 76.3 587.788 81.1667 591.388 87.3C595.054 93.4333 596.888 100.267 596.888 107.8V170H580.088V111.8C580.088 106.867 578.888 102.3 576.488 98.1C574.088 93.9 570.854 90.5333 566.788 88C562.721 85.4667 558.221 84.2 553.288 84.2C548.354 84.2 543.854 85.4 539.788 87.8C535.721 90.1333 532.488 93.4 530.088 97.6C527.688 101.733 526.488 106.467 526.488 111.8V170H509.688V111.8C509.688 106.467 508.488 101.733 506.088 97.6C503.688 93.4 500.421 90.1333 496.288 87.8C492.221 85.4 487.721 84.2 482.788 84.2C477.921 84.2 473.421 85.4667 469.288 88C465.221 90.5333 461.988 93.9 459.588 98.1C457.188 102.3 455.988 106.867 455.988 111.8V170H439.188ZM695.369 70H712.169V170H695.369L694.669 153.1C691.535 158.9 687.202 163.6 681.669 167.2C676.202 170.8 669.669 172.6 662.069 172.6C654.735 172.6 647.869 171.233 641.469 168.5C635.069 165.7 629.402 161.867 624.469 157C619.602 152.067 615.802 146.4 613.069 140C610.335 133.6 608.969 126.7 608.969 119.3C608.969 112.167 610.302 105.433 612.969 99.1C615.635 92.7667 619.335 87.2333 624.069 82.5C628.869 77.7 634.402 73.9667 640.669 71.3C646.935 68.5667 653.669 67.2 660.869 67.2C668.735 67.2 675.635 69.0667 681.569 72.8C687.502 76.4667 692.302 81.2333 695.969 87.1L695.369 70ZM661.769 156.3C668.369 156.3 674.069 154.7 678.869 151.5C683.735 148.233 687.469 143.833 690.069 138.3C692.735 132.767 694.069 126.667 694.069 120C694.069 113.2 692.735 107.067 690.069 101.6C687.402 96.0667 683.635 91.7 678.769 88.5C673.969 85.2333 668.302 83.6 661.769 83.6C655.169 83.6 649.169 85.2333 643.769 88.5C638.369 91.7667 634.069 96.1667 630.869 101.7C627.735 107.167 626.169 113.267 626.169 120C626.169 126.733 627.802 132.867 631.069 138.4C634.335 143.867 638.669 148.233 644.069 151.5C649.469 154.7 655.369 156.3 661.769 156.3ZM820.556 107.8V170H803.756V111.5C803.756 106.433 802.523 101.833 800.056 97.7C797.59 93.5667 794.29 90.3 790.156 87.9C786.023 85.4333 781.423 84.2 776.356 84.2C771.356 84.2 766.756 85.4333 762.556 87.9C758.423 90.3 755.123 93.5667 752.656 97.7C750.19 101.833 748.956 106.433 748.956 111.5V170H732.156V70H748.956V82.5C752.49 77.8333 756.956 74.1333 762.356 71.4C767.756 68.6 773.623 67.2 779.956 67.2C787.423 67.2 794.223 69.0333 800.356 72.7C806.556 76.3 811.456 81.1667 815.056 87.3C818.723 93.4333 820.556 100.267 820.556 107.8ZM922.827 170H903.527L876.927 124.1L858.527 146.1V170H841.727V20H858.527V120L900.427 70H922.327L888.327 110.5L922.827 170Z" fill-rule="evenodd" clip-rule="evenodd" fill="currentColor" />
   <rect y="66.1538" width="267.692" height="133.846" rx="66.9231" fill="url(#paint0_linear_15_20)"/>
   <circle cx="134.615" cy="66.9231" r="66.9231" fill="url(#paint1_linear_15_20)"/>
   <circle cx="200.769" cy="132.923" r="66.9231" fill="url(#paint2_linear_15_20)"/>
   <defs>
      <linearGradient id="paint0_linear_15_20" x1="290" y1="133.846" x2="-1.45552e-06" y2="133.846" gradientUnits="userSpaceOnUse">
         <stop stop-color="#2563EB"/>
         <stop offset="1" stop-color="#BFDBFE"/>
      </linearGradient>
      <linearGradient id="paint1_linear_15_20" x1="173.077" y1="13.8461" x2="40.7692" y2="133.846" gradientUnits="userSpaceOnUse">
         <stop stop-color="#2563EB"/>
         <stop offset="1" stop-color="#BFDBFE"/>
      </linearGradient>
      <linearGradient id="paint2_linear_15_20" x1="267.692" y1="133.692" x2="102.308" y2="133.692" gradientUnits="userSpaceOnUse">
         <stop stop-color="#2563EB"/>
         <stop offset="1" stop-color="#60A5FA"/>
      </linearGradient>
   </defs>
</svg>
